<?xml version="1.0" encoding="UTF-8"?>
<!DOCTYPE svg PUBLIC "-//W3C//DTD SVG 1.1//EN" "http://www.w3.org/Graphics/SVG/1.1/DTD/svg11.dtd">
<svg version="1.2" width="41.4mm" height="49.78mm" viewBox="0 0 4140 4978" preserveAspectRatio="xMidYMid" fill-rule="evenodd" stroke-width="28.222" stroke-linejoin="round" xmlns="http://www.w3.org/2000/svg" xmlns:ooo="http://xml.openoffice.org/svg/export" xmlns:xlink="http://www.w3.org/1999/xlink" xmlns:presentation="http://sun.com/xmlns/staroffice/presentation" xmlns:smil="http://www.w3.org/2001/SMIL20/" xmlns:anim="urn:oasis:names:tc:opendocument:xmlns:animation:1.0" xmlns:svg="urn:oasis:names:tc:opendocument:xmlns:svg-compatible:1.0" xml:space="preserve">
 <defs class="ClipPathGroup">
  <clipPath id="presentation_clip_path" clipPathUnits="userSpaceOnUse">
   <rect x="0" y="0" width="4140" height="4978"/>
  </clipPath>
  <clipPath id="presentation_clip_path_shrink" clipPathUnits="userSpaceOnUse">
   <rect x="4" y="4" width="4132" height="4969"/>
  </clipPath>
 </defs>
 <defs class="TextShapeIndex">
  <g ooo:slide="id1" ooo:id-list="id3"/>
 </defs>
 <defs class="EmbeddedBulletChars">
  <g id="bullet-char-template-57356" transform="scale(0.00048828125,-0.00048828125)">
   <path d="M 580,1141 L 1163,571 580,0 -4,571 580,1141 Z"/>
  </g>
  <g id="bullet-char-template-57354" transform="scale(0.00048828125,-0.00048828125)">
   <path d="M 8,1128 L 1137,1128 1137,0 8,0 8,1128 Z"/>
  </g>
  <g id="bullet-char-template-10146" transform="scale(0.00048828125,-0.00048828125)">
   <path d="M 174,0 L 602,739 174,1481 1456,739 174,0 Z M 1358,739 L 309,1346 659,739 1358,739 Z"/>
  </g>
  <g id="bullet-char-template-10132" transform="scale(0.00048828125,-0.00048828125)">
   <path d="M 2015,739 L 1276,0 717,0 1260,543 174,543 174,936 1260,936 717,1481 1274,1481 2015,739 Z"/>
  </g>
  <g id="bullet-char-template-10007" transform="scale(0.00048828125,-0.00048828125)">
   <path d="M 0,-2 C -7,14 -16,27 -25,37 L 356,567 C 262,823 215,952 215,954 215,979 228,992 255,992 264,992 276,990 289,987 310,991 331,999 354,1012 L 381,999 492,748 772,1049 836,1024 860,1049 C 881,1039 901,1025 922,1006 886,937 835,863 770,784 769,783 710,716 594,584 L 774,223 C 774,196 753,168 711,139 L 727,119 C 717,90 699,76 672,76 641,76 570,178 457,381 L 164,-76 C 142,-110 111,-127 72,-127 30,-127 9,-110 8,-76 1,-67 -2,-52 -2,-32 -2,-23 -1,-13 0,-2 Z"/>
  </g>
  <g id="bullet-char-template-10004" transform="scale(0.00048828125,-0.00048828125)">
   <path d="M 285,-33 C 182,-33 111,30 74,156 52,228 41,333 41,471 41,549 55,616 82,672 116,743 169,778 240,778 293,778 328,747 346,684 L 369,508 C 377,444 397,411 428,410 L 1163,1116 C 1174,1127 1196,1133 1229,1133 1271,1133 1292,1118 1292,1087 L 1292,965 C 1292,929 1282,901 1262,881 L 442,47 C 390,-6 338,-33 285,-33 Z"/>
  </g>
  <g id="bullet-char-template-9679" transform="scale(0.00048828125,-0.00048828125)">
   <path d="M 813,0 C 632,0 489,54 383,161 276,268 223,411 223,592 223,773 276,916 383,1023 489,1130 632,1184 813,1184 992,1184 1136,1130 1245,1023 1353,916 1407,772 1407,592 1407,412 1353,268 1245,161 1136,54 992,0 813,0 Z"/>
  </g>
  <g id="bullet-char-template-8226" transform="scale(0.00048828125,-0.00048828125)">
   <path d="M 346,457 C 273,457 209,483 155,535 101,586 74,649 74,723 74,796 101,859 155,911 209,963 273,989 346,989 419,989 480,963 531,910 582,859 608,796 608,723 608,648 583,586 532,535 482,483 420,457 346,457 Z"/>
  </g>
  <g id="bullet-char-template-8211" transform="scale(0.00048828125,-0.00048828125)">
   <path d="M -4,459 L 1135,459 1135,606 -4,606 -4,459 Z"/>
  </g>
  <g id="bullet-char-template-61548" transform="scale(0.00048828125,-0.00048828125)">
   <path d="M 173,740 C 173,903 231,1043 346,1159 462,1274 601,1332 765,1332 928,1332 1067,1274 1183,1159 1299,1043 1357,903 1357,740 1357,577 1299,437 1183,322 1067,206 928,148 765,148 601,148 462,206 346,322 231,437 173,577 173,740 Z"/>
  </g>
 </defs>
 <g>
  <g id="id2" class="Master_Slide">
   <g id="bg-id2" class="Background"/>
   <g id="bo-id2" class="BackgroundObjects"/>
  </g>
 </g>
 <g class="SlideGroup">
  <g>
   <g id="container-id1">
    <g id="id1" class="Slide" clip-path="url(#presentation_clip_path)">
     <g class="Page">
      <g class="Graphic">
       <g id="id3">
        <rect class="BoundingBox" stroke="none" fill="none" x="0" y="9" width="4148" height="4970"/>
        <defs>
         <clipPath id="clip_path_1" clipPathUnits="userSpaceOnUse">
          <path d="M 0,9 L 4147,9 4147,4978 0,4978 0,9 Z"/>
         </clipPath>
        </defs>
        <g clip-path="url(#clip_path_1)">
         <path fill="rgb(253,252,251)" stroke="none" d="M -6436,-1656 L 14257,-1656 14257,9895 -6436,9895 -6436,-1656 Z"/>
         <path fill="rgb(232,231,231)" stroke="none" d="M -257,6065 C -197,6288 -227,6506 -313,6716 -438,7022 -658,7238 -963,7365 -1031,7394 -1099,7423 -1173,7436 -1202,7441 -1214,7459 -1223,7485 -1250,7558 -1282,7630 -1310,7703 -1392,7913 -1548,8028 -1768,8066 -2002,8107 -2238,8115 -2475,8100 -2582,8093 -2689,8078 -2794,8055 -2962,8019 -3082,7927 -3165,7775 -3279,7567 -3343,7342 -3389,7112 -3456,6771 -3485,6426 -3486,6078 -3487,5829 -3473,5580 -3452,5331 -3447,5271 -3411,5236 -3366,5205 -3290,5154 -3205,5122 -3117,5098 -2958,5056 -2794,5034 -2630,5020 -2438,5004 -2246,5002 -2054,5009 -1821,5019 -1590,5040 -1366,5108 -1287,5131 -1211,5163 -1143,5211 -1096,5245 -1065,5288 -1062,5348 -1058,5430 -1051,5512 -1046,5595 -1045,5609 -1048,5624 -1037,5640 -999,5632 -961,5622 -921,5618 -599,5579 -342,5751 -257,6065 L -257,6065 Z"/>
         <path fill="rgb(232,231,231)" stroke="none" d="M -243,1699 C -177,1934 -202,2165 -300,2387 -442,2711 -697,2910 -1023,3027 -1138,3068 -1114,3050 -1120,3157 -1122,3186 -1125,3216 -1125,3245 -1126,3397 -1211,3493 -1336,3559 -1447,3618 -1568,3648 -1690,3674 -1970,3734 -2252,3739 -2535,3704 -2687,3685 -2836,3660 -2980,3608 -3056,3580 -3126,3542 -3186,3487 -3261,3419 -3298,3335 -3300,3235 -3310,2861 -3340,2487 -3341,2253 -3355,1740 -3356,1368 -3338,996 -3335,931 -3305,889 -3254,856 -3168,800 -3069,775 -2970,754 -2662,690 -2349,678 -2036,691 -1806,701 -1576,718 -1352,778 -1295,794 -1239,812 -1187,841 -1122,878 -1082,929 -1083,1009 -1085,1072 -1079,1136 -1077,1199 -1075,1273 -1075,1272 -999,1257 -954,1247 -908,1239 -862,1237 -538,1223 -320,1431 -243,1699 L -243,1699 Z"/>
         <path fill="rgb(232,231,231)" stroke="none" d="M 3485,6980 C 3491,7078 3418,7129 3327,7093 3284,7075 3255,7042 3233,7003 3181,6908 3132,6812 3094,6711 3057,6613 3023,6513 2993,6411 2981,6371 2967,6331 2947,6293 2918,6236 2872,6203 2806,6202 2733,6200 2659,6195 2585,6211 2533,6222 2532,6225 2565,6269 2689,6436 2797,6612 2884,6801 2967,6983 3026,7172 3036,7373 3040,7456 3031,7538 3010,7618 2964,7786 2847,7892 2697,7965 2562,8032 2414,8062 2265,8079 1957,8115 1649,8115 1341,8091 1180,8079 1021,8058 868,8003 798,7979 733,7945 672,7902 525,7799 454,7654 441,7478 424,7239 493,7018 590,6804 680,6607 795,6425 927,6254 945,6231 948,6216 937,6188 903,6107 905,6023 928,5939 936,5910 955,5887 975,5864 926,5784 872,5709 815,5634 799,5613 782,5590 770,5566 738,5501 769,5446 841,5439 873,5437 905,5439 936,5442 1203,5470 1470,5500 1737,5523 1977,5543 2217,5565 2457,5588 2554,5597 2582,5644 2552,5740 2541,5774 2530,5808 2518,5842 2511,5861 2518,5869 2535,5875 2558,5884 2581,5884 2604,5884 2697,5883 2790,5883 2883,5881 3026,5879 3129,5943 3194,6071 3247,6175 3281,6286 3315,6397 3362,6550 3409,6704 3456,6857 3465,6887 3473,6918 3480,6949 3483,6959 3484,6970 3485,6980 L 3485,6980 Z"/>
         <path fill="rgb(232,231,231)" stroke="none" d="M 3780,1389 C 3833,1476 3845,1567 3818,1663 3734,1969 3635,2270 3523,2566 3519,2578 3512,2589 3509,2601 3467,2727 3378,2789 3249,2796 3198,2799 3148,2812 3097,2810 3035,2807 3004,2783 2992,2722 2984,2683 2978,2643 2981,2602 2985,2546 3007,2524 3064,2519 3085,2517 3107,2516 3127,2513 3213,2499 3220,2490 3231,2406 3251,2255 3280,2105 3330,1961 3361,1871 3395,1782 3427,1693 3438,1663 3450,1634 3450,1601 3449,1503 3360,1434 3268,1467 3176,1501 3090,1546 3003,1588 2980,1599 2973,1616 2969,1638 2917,1910 2865,2182 2813,2453 2807,2487 2799,2520 2789,2552 2777,2593 2754,2629 2714,2650 2689,2663 2678,2680 2680,2710 2685,2778 2679,2845 2670,2913 2667,2934 2668,2949 2690,2959 2751,2989 2773,3046 2787,3107 2817,3241 2847,3375 2876,3509 2926,3743 2975,3976 3025,4210 3027,4222 3030,4235 3032,4247 3051,4350 3012,4426 2915,4466 2812,4509 2706,4545 2603,4588 2507,4628 2410,4646 2306,4642 2186,4638 2065,4642 1945,4642 1808,4642 1670,4640 1533,4642 1474,4643 1419,4633 1365,4612 1243,4565 1121,4520 998,4473 886,4431 847,4365 872,4247 952,3868 1034,3491 1116,3113 1130,3051 1148,2989 1213,2958 1232,2949 1231,2931 1229,2914 1223,2843 1215,2771 1221,2699 1223,2677 1214,2664 1195,2653 1136,2618 1112,2561 1100,2496 1076,2365 1050,2234 1026,2104 1018,2059 1000,2020 972,1984 853,1828 737,1668 636,1500 621,1476 604,1455 589,1432 552,1378 500,1350 437,1338 422,1336 407,1334 394,1329 342,1310 326,1273 359,1231 418,1155 485,1093 595,1097 775,1102 774,1097 940,1020 1187,907 1436,795 1684,683 1705,673 1726,663 1748,655 1771,646 1772,633 1767,610 1749,541 1733,471 1718,400 1711,367 1709,333 1705,300 1699,247 1721,209 1766,184 1886,118 2008,118 2130,178 2183,205 2203,250 2198,310 2189,398 2165,484 2148,571 2147,577 2145,583 2143,589 2132,645 2132,645 2184,667 2466,787 2742,918 3020,1047 3047,1059 3073,1060 3100,1058 3176,1052 3252,1047 3327,1037 3456,1020 3554,1065 3627,1171 3678,1244 3733,1314 3780,1389 L 3780,1389 Z"/>
         <path fill="rgb(232,231,231)" stroke="none" d="M 5357,5743 C 5326,5794 5310,5847 5355,5901 5372,5921 5373,5945 5349,5962 5325,5981 5305,5967 5290,5948 5248,5894 5233,5835 5256,5769 5269,5731 5290,5697 5314,5664 5334,5637 5355,5610 5374,5582 5415,5522 5428,5454 5414,5383 5393,5275 5307,5225 5231,5234 5131,5235 5062,5306 5071,5397 5074,5436 5095,5464 5130,5481 5155,5493 5181,5489 5201,5472 5218,5457 5224,5437 5214,5414 5206,5394 5199,5372 5226,5361 5249,5351 5273,5364 5287,5392 5318,5451 5289,5526 5222,5554 5160,5580 5102,5570 5051,5524 4964,5446 4968,5306 5058,5220 5189,5095 5414,5146 5478,5315 5521,5429 5501,5536 5434,5634 5409,5671 5380,5705 5357,5743 L 5357,5743 Z"/>
         <path fill="rgb(232,231,231)" stroke="none" d="M 5957,5420 C 5890,5487 5850,5565 5855,5664 5858,5728 5884,5782 5924,5830 5959,5871 5963,5888 5943,5905 5922,5924 5897,5917 5864,5879 5777,5778 5748,5665 5792,5537 5815,5470 5853,5412 5903,5362 5951,5314 6002,5269 6048,5220 6129,5137 6179,5040 6176,4920 6169,4715 5963,4586 5785,4676 5732,4702 5693,4743 5667,4796 5626,4879 5655,4981 5731,5030 5764,5051 5799,5054 5835,5045 5891,5029 5914,4979 5892,4925 5888,4915 5881,4907 5876,4898 5868,4880 5872,4865 5887,4852 5903,4840 5918,4843 5933,4854 5953,4867 5967,4885 5975,4908 6007,4998 5948,5099 5851,5122 5669,5165 5542,4980 5572,4833 5616,4616 5875,4499 6070,4609 6199,4682 6252,4796 6255,4939 6250,5067 6200,5174 6115,5265 6065,5319 6009,5368 5957,5420 L 5957,5420 Z"/>
         <path fill="rgb(232,231,231)" stroke="none" d="M 6754,5490 C 6805,5364 6751,5242 6629,5204 6534,5174 6438,5217 6411,5302 6400,5337 6400,5373 6416,5407 6431,5437 6454,5457 6491,5455 6532,5454 6552,5432 6547,5391 6544,5367 6541,5349 6572,5345 6599,5342 6616,5349 6625,5377 6643,5435 6610,5503 6550,5527 6451,5565 6341,5494 6327,5385 6316,5290 6348,5215 6425,5159 6508,5099 6600,5102 6689,5142 6796,5190 6847,5277 6850,5395 6848,5506 6803,5598 6720,5671 6689,5699 6653,5723 6619,5747 6567,5785 6527,5828 6530,5898 6530,5921 6521,5942 6494,5942 6466,5942 6456,5921 6453,5896 6448,5830 6473,5776 6518,5730 6547,5700 6583,5676 6618,5653 6679,5611 6726,5559 6754,5490 L 6754,5490 Z"/>
         <path fill="rgb(232,231,231)" stroke="none" d="M 7371,6436 C 7353,6757 7290,7064 7106,7336 6996,7498 6856,7628 6682,7718 6646,7736 6628,7759 6620,7797 6595,7926 6513,8004 6391,8044 6228,8097 6060,8105 5891,8107 5747,8107 5604,8097 5462,8067 5433,8061 5405,8052 5377,8043 5253,8006 5178,7920 5147,7796 5137,7759 5120,7737 5084,7718 4802,7569 4618,7335 4506,7040 4432,6846 4403,6643 4392,6438 4387,6367 4415,6312 4478,6274 4544,6234 4616,6209 4688,6187 4871,6133 5060,6108 5249,6088 5575,6052 5903,6051 6230,6063 6505,6074 6778,6104 7045,6176 7124,6197 7201,6226 7274,6266 7341,6303 7376,6355 7371,6436 L 7371,6436 Z"/>
         <path fill="rgb(232,231,231)" stroke="none" d="M 7666,2151 C 7676,2163 7677,2179 7668,2192 7658,2208 7645,2216 7625,2213 7608,2210 7594,2200 7580,2191 7472,2119 7400,2020 7361,1896 7345,1844 7331,1791 7318,1738 7262,1510 7119,1360 6903,1277 6885,1270 6866,1255 6843,1268 6840,1296 6861,1314 6873,1335 7001,1561 7129,1787 7211,2036 7267,2209 7302,2387 7329,2567 7360,2768 7388,2969 7415,3170 7423,3237 7432,3304 7424,3372 7413,3469 7367,3548 7284,3594 7047,3725 6806,3848 6536,3896 6420,3917 6304,3916 6188,3900 5889,3860 5590,3817 5293,3763 5150,3737 5008,3702 4872,3649 4744,3599 4637,3524 4579,3394 4539,3304 4526,3209 4543,3114 4598,2811 4648,2506 4726,2208 4776,2014 4855,1832 4954,1659 5030,1527 5104,1394 5188,1268 5204,1243 5233,1220 5191,1190 5177,1179 5180,1151 5198,1139 5224,1123 5216,1106 5207,1086 5168,997 5128,908 5091,819 5062,750 5037,680 5033,606 5027,491 5096,427 5211,442 5282,451 5353,464 5423,476 5483,486 5540,477 5596,451 5674,415 5751,374 5837,357 5910,343 5980,351 6049,375 6087,388 6125,401 6161,420 6267,476 6377,465 6488,443 6580,425 6671,408 6765,411 6805,412 6845,420 6882,433 6959,459 6992,514 6984,594 6972,700 6937,799 6890,895 6868,941 6846,986 6824,1032 6813,1054 6804,1074 6833,1091 6843,1096 6855,1109 6856,1120 6861,1178 6905,1188 6948,1206 7181,1304 7339,1467 7395,1719 7415,1808 7435,1897 7487,1974 7526,2033 7572,2084 7632,2123 7644,2132 7656,2140 7666,2151 L 7666,2151 Z"/>
         <path fill="rgb(232,231,231)" stroke="none" d="M 8618,1513 C 8582,1470 8564,1423 8584,1367 8600,1323 8610,1278 8616,1232 8624,1170 8667,1130 8722,1107 8764,1090 8782,1063 8790,1019 8803,951 8823,884 8836,815 8847,759 8879,721 8925,691 9011,636 9107,611 9204,590 9417,545 9647,523 9912,524 10122,529 10373,545 10617,614 10680,632 10741,657 10797,692 10843,721 10875,759 10885,817 10898,885 10918,952 10931,1020 10938,1059 10951,1084 10991,1100 11064,1129 11111,1183 11114,1268 11115,1295 11126,1321 11135,1347 11162,1425 11146,1481 11083,1534 11077,1539 11071,1546 11063,1549 10993,1572 10989,1630 10982,1691 10970,1804 10954,1917 10939,2030 10934,2064 10928,2094 10966,2118 10996,2137 11001,2175 10997,2210 10988,2296 10977,2382 10967,2468 10947,2634 10928,2800 10908,2966 10895,3074 10881,3184 10868,3293 10863,3331 10848,3367 10818,3392 10789,3416 10779,3445 10775,3480 10756,3640 10737,3799 10718,3959 10715,3980 10712,4000 10710,4022 10700,4098 10659,4153 10595,4195 10517,4244 10431,4273 10342,4295 9971,4385 9605,4363 9243,4245 9201,4232 9161,4212 9123,4189 9061,4152 9025,4098 9016,4026 9000,3894 8983,3762 8967,3630 8963,3594 8955,3559 8955,3523 8954,3469 8942,3425 8898,3389 8865,3363 8856,3323 8851,3281 8832,3107 8812,2933 8791,2758 8772,2590 8751,2423 8731,2255 8729,2232 8727,2209 8728,2185 8729,2162 8734,2135 8755,2124 8791,2104 8787,2077 8783,2044 8766,1914 8752,1783 8739,1653 8735,1612 8725,1580 8683,1563 8657,1554 8636,1534 8618,1513 L 8618,1513 Z"/>
         <path fill="rgb(232,231,231)" stroke="none" d="M 11213,6768 C 11193,6948 11142,7116 11018,7253 10964,7312 10927,7381 10894,7451 10814,7619 10689,7739 10516,7808 10459,7831 10400,7849 10340,7858 10216,7877 10097,7914 9983,7965 9893,8006 9798,8022 9705,8018 9536,8020 9386,7978 9251,7885 9207,7855 9159,7834 9107,7820 8963,7783 8839,7709 8729,7610 8658,7546 8611,7465 8586,7374 8555,7261 8506,7157 8436,7062 8284,6855 8279,6472 8404,6263 8428,6222 8450,6178 8475,6136 8512,6074 8534,6006 8548,5935 8605,5651 8776,5471 9049,5384 9147,5353 9249,5327 9338,5273 9526,5159 9724,5150 9930,5206 9958,5214 9987,5222 10015,5230 10099,5254 10183,5273 10270,5277 10400,5283 10518,5330 10624,5402 10760,5495 10872,5612 10962,5751 11019,5840 11050,5938 11058,6043 11066,6145 11088,6243 11129,6337 11188,6474 11229,6616 11213,6768 L 11213,6768 Z"/>
         <path fill="rgb(21,21,21)" stroke="none" d="M -300,2387 C -442,2711 -697,2910 -1023,3027 -1138,3068 -1114,3050 -1120,3157 -1122,3186 -1125,3216 -1125,3245 -1126,3397 -1211,3493 -1336,3559 -1447,3618 -1568,3648 -1690,3674 -1970,3734 -2252,3739 -2535,3704 -2687,3685 -2836,3660 -2980,3608 -3056,3580 -3126,3542 -3186,3487 -3261,3419 -3298,3335 -3300,3235 -3310,2861 -3340,2487 -3341,2253 -3355,1740 -3356,1368 -3338,996 -3335,931 -3305,889 -3254,856 -3168,800 -3069,775 -2970,754 -2662,690 -2349,678 -2036,691 -1806,701 -1576,718 -1352,778 -1295,794 -1239,812 -1187,841 -1122,878 -1082,929 -1083,1009 -1085,1072 -1079,1136 -1077,1199 -1075,1273 -1075,1272 -999,1257 -954,1247 -908,1239 -862,1237 -538,1223 -320,1431 -243,1699 -177,1934 -202,2165 -300,2387 L -300,2387 Z"/>
         <path fill="rgb(21,21,21)" stroke="none" d="M -313,6716 C -438,7022 -658,7238 -963,7365 -1031,7394 -1099,7423 -1173,7436 -1202,7441 -1214,7459 -1223,7485 -1250,7558 -1282,7630 -1310,7703 -1392,7913 -1548,8028 -1768,8066 -2002,8107 -2238,8115 -2475,8100 -2582,8093 -2689,8078 -2794,8055 -2962,8019 -3082,7927 -3165,7775 -3279,7567 -3343,7342 -3389,7112 -3456,6771 -3485,6426 -3486,6078 -3487,5829 -3473,5580 -3452,5331 -3447,5271 -3411,5236 -3366,5205 -3290,5154 -3205,5122 -3117,5098 -2958,5056 -2794,5034 -2630,5020 -2438,5004 -2246,5002 -2054,5009 -1821,5019 -1590,5040 -1366,5108 -1287,5131 -1211,5163 -1143,5211 -1096,5245 -1065,5288 -1062,5348 -1058,5430 -1051,5512 -1046,5595 -1045,5609 -1048,5624 -1037,5640 -999,5632 -961,5622 -921,5618 -599,5579 -342,5751 -257,6065 -197,6288 -227,6506 -313,6716 L -313,6716 Z"/>
         <path fill="rgb(21,21,21)" stroke="none" d="M 11083,1534 C 11077,1539 11071,1546 11063,1549 10993,1572 10989,1630 10982,1691 10970,1804 10954,1917 10939,2030 10934,2064 10928,2094 10966,2118 10996,2137 11001,2175 10997,2210 10988,2296 10977,2382 10967,2468 10947,2634 10928,2800 10908,2966 10895,3074 10881,3184 10868,3293 10863,3331 10848,3367 10818,3392 10789,3416 10779,3445 10775,3480 10756,3640 10737,3799 10718,3959 10715,3980 10712,4000 10710,4022 10700,4098 10659,4153 10595,4195 10517,4244 10431,4273 10342,4295 9971,4385 9605,4363 9243,4245 9201,4232 9161,4212 9123,4189 9061,4152 9025,4098 9016,4026 9000,3894 8983,3762 8967,3630 8963,3594 8955,3559 8955,3523 8954,3469 8942,3425 8898,3389 8865,3363 8856,3323 8851,3281 8832,3107 8812,2933 8791,2758 8772,2590 8751,2423 8731,2255 8729,2232 8727,2209 8728,2185 8729,2162 8734,2135 8755,2124 8791,2104 8787,2077 8783,2044 8766,1914 8752,1783 8739,1653 8735,1612 8725,1580 8683,1563 8657,1554 8636,1534 8618,1513 8582,1470 8564,1423 8584,1367 8600,1323 8610,1278 8616,1232 8624,1170 8667,1130 8722,1107 8764,1090 8782,1063 8790,1019 8803,951 8823,884 8836,815 8847,759 8879,721 8925,691 9011,636 9107,611 9204,590 9417,545 9647,523 9912,524 10122,529 10373,545 10617,614 10680,632 10741,657 10797,692 10843,721 10875,759 10885,817 10898,885 10918,952 10931,1020 10938,1059 10951,1084 10991,1100 11064,1129 11111,1183 11114,1268 11115,1295 11126,1321 11135,1347 11162,1425 11146,1481 11083,1534 L 11083,1534 Z"/>
         <path fill="rgb(21,21,21)" stroke="none" d="M 3818,1663 C 3734,1969 3635,2270 3523,2566 3519,2578 3512,2589 3509,2601 3467,2727 3378,2789 3249,2796 3198,2799 3148,2812 3097,2810 3035,2807 3004,2783 2992,2722 2984,2683 2978,2643 2981,2602 2985,2546 3007,2524 3064,2519 3085,2517 3107,2516 3127,2513 3213,2499 3220,2490 3231,2406 3251,2255 3280,2105 3330,1961 3361,1871 3395,1782 3427,1693 3438,1663 3450,1634 3450,1601 3449,1503 3360,1434 3268,1467 3176,1501 3090,1546 3003,1588 2980,1599 2973,1616 2969,1638 2917,1910 2865,2182 2813,2453 2807,2487 2799,2520 2789,2552 2777,2593 2754,2629 2714,2650 2689,2663 2678,2680 2680,2710 2685,2778 2679,2845 2670,2913 2667,2934 2668,2949 2690,2959 2751,2989 2773,3046 2787,3107 2817,3241 2847,3375 2876,3509 2926,3743 2975,3976 3025,4210 3027,4222 3030,4235 3032,4247 3051,4350 3012,4426 2915,4466 2812,4509 2706,4545 2603,4588 2507,4628 2410,4646 2306,4642 2186,4638 2065,4642 1945,4642 1808,4642 1670,4640 1533,4642 1474,4643 1419,4633 1365,4612 1243,4565 1121,4520 998,4473 886,4431 847,4365 872,4247 952,3868 1034,3491 1116,3113 1130,3051 1148,2989 1213,2958 1232,2949 1231,2931 1229,2914 1223,2843 1215,2771 1221,2699 1223,2677 1214,2664 1195,2653 1136,2618 1112,2561 1100,2496 1076,2365 1050,2234 1026,2104 1018,2059 1000,2020 972,1984 853,1828 737,1668 636,1500 621,1476 604,1455 589,1432 552,1378 500,1350 437,1338 422,1336 407,1334 394,1329 342,1310 326,1273 359,1231 418,1155 485,1093 595,1097 775,1102 774,1097 940,1020 1187,907 1436,795 1684,683 1705,673 1726,663 1748,655 1771,646 1772,633 1767,610 1749,541 1733,471 1718,400 1711,367 1709,333 1705,300 1699,247 1721,209 1766,184 1886,118 2008,118 2130,178 2183,205 2203,250 2198,310 2189,398 2165,484 2148,571 2147,577 2145,583 2143,589 2132,645 2132,645 2184,667 2466,787 2742,918 3020,1047 3047,1059 3073,1060 3100,1058 3176,1052 3252,1047 3327,1037 3456,1020 3554,1065 3627,1171 3678,1244 3733,1314 3780,1389 3833,1476 3845,1567 3818,1663 L 3818,1663 Z"/>
         <path fill="rgb(21,21,21)" stroke="none" d="M 7668,2192 C 7658,2208 7645,2216 7625,2213 7608,2210 7594,2200 7580,2191 7472,2119 7400,2020 7361,1896 7345,1844 7331,1791 7318,1738 7262,1510 7119,1360 6903,1277 6885,1270 6866,1255 6843,1268 6840,1296 6861,1314 6873,1335 7001,1561 7129,1787 7211,2036 7267,2209 7302,2387 7329,2567 7360,2768 7388,2969 7415,3170 7423,3237 7432,3304 7424,3372 7413,3469 7367,3548 7284,3594 7047,3725 6806,3848 6536,3896 6420,3917 6304,3916 6188,3900 5889,3860 5590,3817 5293,3763 5150,3737 5008,3702 4872,3649 4744,3599 4637,3524 4579,3394 4539,3304 4526,3209 4543,3114 4598,2811 4648,2506 4726,2208 4776,2014 4855,1832 4954,1659 5030,1527 5104,1394 5188,1268 5204,1243 5233,1220 5191,1190 5177,1179 5180,1151 5198,1139 5224,1123 5216,1106 5207,1086 5168,997 5128,908 5091,819 5062,750 5037,680 5033,606 5027,491 5096,427 5211,442 5282,451 5353,464 5423,476 5483,486 5540,477 5596,451 5674,415 5751,374 5837,357 5910,343 5980,351 6049,375 6087,388 6125,401 6161,420 6267,476 6377,465 6488,443 6580,425 6671,408 6765,411 6805,412 6845,420 6882,433 6959,459 6992,514 6984,594 6972,700 6937,799 6890,895 6868,941 6846,986 6824,1032 6813,1054 6804,1074 6833,1091 6843,1096 6855,1109 6856,1120 6861,1178 6905,1188 6948,1206 7181,1304 7339,1467 7395,1719 7415,1808 7435,1897 7487,1974 7526,2033 7572,2084 7632,2123 7644,2132 7656,2140 7666,2151 7676,2163 7677,2179 7668,2192 L 7668,2192 Z"/>
         <path fill="rgb(21,21,21)" stroke="none" d="M 3327,7093 C 3284,7075 3255,7042 3233,7003 3181,6908 3132,6812 3094,6711 3057,6613 3023,6513 2993,6411 2981,6371 2967,6331 2947,6293 2918,6236 2872,6203 2806,6202 2733,6200 2659,6195 2585,6211 2533,6222 2532,6225 2565,6269 2689,6436 2797,6612 2884,6801 2967,6983 3026,7172 3036,7373 3040,7456 3031,7538 3010,7618 2964,7786 2847,7892 2697,7965 2562,8032 2414,8062 2265,8079 1957,8115 1649,8115 1341,8091 1180,8079 1021,8058 868,8003 798,7979 733,7945 672,7902 525,7799 454,7654 441,7478 424,7239 493,7018 590,6804 680,6607 795,6425 927,6254 945,6231 948,6216 937,6188 903,6107 905,6023 928,5939 936,5910 955,5887 975,5864 926,5784 872,5709 815,5634 799,5613 782,5590 770,5566 738,5501 769,5446 841,5439 873,5437 905,5439 936,5442 1203,5470 1470,5500 1737,5523 1977,5543 2217,5565 2457,5588 2554,5597 2582,5644 2552,5740 2541,5774 2530,5808 2518,5842 2511,5861 2518,5869 2535,5875 2558,5884 2581,5884 2604,5884 2697,5883 2790,5883 2883,5881 3026,5879 3129,5943 3194,6071 3247,6175 3281,6286 3315,6397 3362,6550 3409,6704 3456,6857 3465,6887 3473,6918 3480,6949 3483,6959 3484,6970 3485,6980 3491,7078 3418,7129 3327,7093 L 3327,7093 Z"/>
         <path fill="rgb(21,21,21)" stroke="none" d="M 7371,6436 C 7353,6757 7290,7064 7106,7336 6996,7498 6856,7628 6682,7718 6646,7736 6628,7759 6620,7797 6595,7926 6513,8004 6391,8044 6228,8097 6060,8105 5891,8107 5747,8107 5604,8097 5462,8067 5433,8061 5405,8052 5377,8043 5253,8006 5178,7920 5147,7796 5137,7759 5120,7737 5084,7718 4802,7569 4618,7335 4506,7040 4432,6846 4403,6643 4392,6438 4387,6367 4415,6312 4478,6274 4544,6234 4616,6209 4688,6187 4871,6133 5060,6108 5249,6088 5575,6052 5903,6051 6230,6063 6505,6074 6778,6104 7045,6176 7124,6197 7201,6226 7274,6266 7341,6303 7376,6355 7371,6436 L 7371,6436 Z"/>
         <path fill="rgb(21,21,21)" stroke="none" d="M 11213,6768 C 11193,6948 11142,7116 11018,7253 10964,7312 10927,7381 10894,7451 10814,7619 10689,7739 10516,7808 10459,7831 10400,7849 10340,7858 10216,7877 10097,7914 9983,7965 9893,8006 9798,8022 9705,8018 9536,8020 9386,7978 9251,7885 9207,7855 9159,7834 9107,7820 8963,7783 8839,7709 8729,7610 8658,7546 8611,7465 8586,7374 8555,7261 8506,7157 8436,7062 8284,6855 8279,6472 8404,6263 8428,6222 8450,6178 8475,6136 8512,6074 8534,6006 8548,5935 8605,5651 8776,5471 9049,5384 9147,5353 9249,5327 9338,5273 9526,5159 9724,5150 9930,5206 9958,5214 9987,5222 10015,5230 10099,5254 10183,5273 10270,5277 10400,5283 10518,5330 10624,5402 10760,5495 10872,5612 10962,5751 11019,5840 11050,5938 11058,6043 11066,6145 11088,6243 11129,6337 11188,6474 11229,6616 11213,6768 L 11213,6768 Z"/>
         <path fill="rgb(21,21,21)" stroke="none" d="M 6255,4939 C 6250,5067 6200,5174 6115,5265 6065,5319 6009,5368 5957,5420 5890,5487 5850,5565 5855,5664 5858,5728 5884,5782 5924,5830 5959,5871 5963,5888 5943,5905 5922,5924 5897,5917 5864,5879 5777,5778 5748,5665 5792,5537 5815,5470 5853,5412 5903,5362 5951,5314 6002,5269 6048,5220 6129,5137 6179,5040 6176,4920 6169,4715 5963,4586 5785,4676 5732,4702 5693,4743 5667,4796 5626,4879 5655,4981 5731,5030 5764,5051 5799,5054 5835,5045 5891,5029 5914,4979 5892,4925 5888,4915 5881,4907 5876,4898 5868,4880 5872,4865 5887,4852 5903,4840 5918,4843 5933,4854 5953,4867 5967,4885 5975,4908 6007,4998 5948,5099 5851,5122 5669,5165 5542,4980 5572,4833 5616,4616 5875,4499 6070,4609 6199,4682 6252,4796 6255,4939 L 6255,4939 Z"/>
         <path fill="rgb(21,21,21)" stroke="none" d="M 6850,5395 C 6848,5506 6803,5598 6720,5671 6689,5699 6653,5723 6619,5747 6567,5785 6527,5828 6530,5898 6530,5921 6521,5942 6494,5942 6466,5942 6456,5921 6453,5896 6448,5830 6473,5776 6518,5730 6547,5700 6583,5676 6618,5653 6679,5611 6726,5559 6754,5490 6805,5364 6751,5242 6629,5204 6534,5174 6438,5217 6411,5302 6400,5337 6400,5373 6416,5407 6431,5437 6454,5457 6491,5455 6532,5454 6552,5432 6547,5391 6544,5367 6541,5349 6572,5345 6599,5342 6616,5349 6625,5377 6643,5435 6610,5503 6550,5527 6451,5565 6341,5494 6327,5385 6316,5290 6348,5215 6425,5159 6508,5099 6600,5102 6689,5142 6796,5190 6847,5277 6850,5395 L 6850,5395 Z"/>
         <path fill="rgb(21,21,21)" stroke="none" d="M 5357,5743 C 5326,5794 5310,5847 5355,5901 5372,5921 5373,5945 5349,5962 5325,5981 5305,5967 5290,5948 5248,5894 5233,5835 5256,5769 5269,5731 5290,5697 5314,5664 5334,5637 5355,5610 5374,5582 5415,5522 5428,5454 5414,5383 5393,5275 5307,5225 5231,5234 5131,5235 5062,5306 5071,5397 5074,5436 5095,5464 5130,5481 5155,5493 5181,5489 5201,5472 5218,5457 5224,5437 5214,5414 5206,5394 5199,5372 5226,5361 5249,5351 5273,5364 5287,5392 5318,5451 5289,5526 5222,5554 5160,5580 5102,5570 5051,5524 4964,5446 4968,5306 5058,5220 5189,5095 5414,5146 5478,5315 5521,5429 5501,5536 5434,5634 5409,5671 5380,5705 5357,5743 L 5357,5743 Z"/>
         <path fill="rgb(253,252,251)" stroke="none" d="M -1091,2678 C -1091,2615 -1093,2552 -1091,2489 -1081,2233 -1068,1977 -1069,1721 -1069,1667 -1046,1640 -1002,1621 -956,1602 -910,1588 -862,1583 -737,1568 -620,1647 -573,1775 -539,1867 -535,1962 -550,2056 -598,2358 -771,2561 -1054,2671 -1065,2675 -1077,2682 -1091,2678 L -1091,2678 Z"/>
         <path fill="rgb(254,254,253)" stroke="none" d="M -1072,1556 C -1072,1495 -1070,1441 -1073,1386 -1074,1359 -1061,1349 -1038,1343 -692,1248 -383,1399 -308,1776 -250,2064 -322,2325 -494,2559 -641,2758 -840,2884 -1073,2960 -1083,2963 -1093,2966 -1106,2961 -1112,2908 -1106,2853 -1105,2799 -1105,2773 -1085,2770 -1068,2763 -1020,2744 -971,2731 -927,2706 -698,2576 -533,2394 -480,2130 -451,1989 -450,1848 -512,1713 -584,1555 -735,1479 -907,1510 -960,1521 -1011,1539 -1072,1556 L -1072,1556 Z"/>
         <path fill="rgb(254,254,253)" stroke="none" d="M -2210,765 C -1946,766 -1683,788 -1424,842 -1360,856 -1297,874 -1238,904 -1225,911 -1212,918 -1200,927 -1156,959 -1157,985 -1205,1013 -1232,1029 -1262,1039 -1291,1052 -1306,1059 -1318,1056 -1333,1049 -1463,983 -1605,961 -1748,945 -1994,918 -2241,915 -2488,933 -2642,944 -2796,958 -2946,995 -2985,1005 -3026,1011 -3059,1033 -3097,1058 -3130,1054 -3165,1034 -3196,1017 -3244,1009 -3245,970 -3246,927 -3197,916 -3164,900 -3055,846 -2936,823 -2817,807 -2616,779 -2413,764 -2210,765 L -2210,765 Z"/>
         <path fill="rgb(254,254,253)" stroke="none" d="M -2200,1951 C -2200,2008 -2200,2065 -2200,2122 -2201,2165 -2201,2166 -2241,2166 -2395,2166 -2548,2154 -2701,2136 -2733,2132 -2743,2118 -2743,2087 -2743,1968 -2747,1850 -2749,1732 -2749,1694 -2747,1691 -2710,1697 -2555,1717 -2399,1729 -2243,1730 -2214,1730 -2208,1742 -2208,1767 -2209,1829 -2208,1890 -2208,1951 -2206,1951 -2203,1951 -2200,1951 L -2200,1951 Z"/>
         <path fill="rgb(254,254,253)" stroke="none" d="M -1614,2424 C -1614,2481 -1614,2538 -1614,2595 -1615,2643 -1615,2644 -1659,2652 -1796,2677 -1934,2688 -2074,2695 -2102,2696 -2116,2689 -2117,2657 -2118,2531 -2121,2404 -2125,2278 -2126,2250 -2115,2241 -2088,2241 -1946,2244 -1806,2223 -1667,2202 -1619,2195 -1618,2197 -1617,2247 -1617,2306 -1617,2365 -1617,2424 -1616,2424 -1615,2424 -1614,2424 L -1614,2424 Z"/>
         <path fill="rgb(254,254,253)" stroke="none" d="M -2181,2971 C -2181,3024 -2182,3077 -2180,3129 -2179,3160 -2186,3177 -2222,3175 -2375,3169 -2529,3165 -2682,3144 -2712,3140 -2720,3129 -2720,3101 -2721,2995 -2724,2890 -2729,2784 -2730,2753 -2721,2743 -2690,2747 -2532,2764 -2375,2775 -2216,2772 -2191,2772 -2184,2783 -2184,2807 -2185,2861 -2184,2916 -2184,2971 -2183,2971 -2182,2971 -2181,2971 L -2181,2971 Z"/>
         <path fill="rgb(254,254,253)" stroke="none" d="M -2148,1450 C -2148,1397 -2147,1344 -2149,1291 -2149,1263 -2144,1250 -2111,1250 -1972,1249 -1833,1235 -1694,1224 -1646,1220 -1647,1221 -1644,1270 -1639,1367 -1633,1464 -1628,1561 -1626,1607 -1627,1609 -1669,1615 -1809,1635 -1950,1646 -2091,1653 -2135,1655 -2136,1653 -2137,1608 -2138,1555 -2137,1502 -2137,1449 -2141,1450 -2144,1450 -2148,1450 L -2148,1450 Z"/>
         <path fill="rgb(254,254,253)" stroke="none" d="M -3259,2102 C -3254,2102 -3247,2100 -3241,2102 -3114,2147 -2981,2175 -2849,2200 -2830,2204 -2816,2208 -2816,2230 -2812,2367 -2809,2504 -2806,2642 -2845,2652 -2877,2638 -2909,2631 -3010,2609 -3109,2579 -3205,2542 -3227,2534 -3247,2526 -3248,2495 -3252,2369 -3259,2242 -3264,2115 -3264,2111 -3261,2107 -3259,2102 L -3259,2102 Z"/>
         <path fill="rgb(254,254,253)" stroke="none" d="M -1617,3206 C -1617,3279 -1616,3348 -1617,3418 -1618,3460 -1623,3502 -1625,3544 -1626,3569 -1636,3581 -1661,3586 -1791,3611 -1922,3632 -2055,3639 -2081,3640 -2099,3641 -2099,3605 -2098,3500 -2099,3395 -2102,3289 -2102,3262 -2093,3252 -2066,3251 -1971,3249 -1876,3242 -1782,3229 -1728,3222 -1674,3214 -1617,3206 L -1617,3206 Z"/>
         <path fill="rgb(254,254,253)" stroke="none" d="M -2827,1607 C -2974,1576 -3109,1542 -3242,1502 -3266,1494 -3276,1482 -3275,1456 -3272,1334 -3261,1212 -3264,1078 -3121,1154 -2973,1183 -2818,1213 -2826,1342 -2831,1470 -2827,1607 L -2827,1607 Z"/>
         <path fill="rgb(254,254,253)" stroke="none" d="M -1538,2095 C -1541,1995 -1544,1899 -1547,1802 -1548,1770 -1548,1739 -1550,1707 -1551,1686 -1543,1675 -1523,1672 -1398,1652 -1279,1611 -1156,1567 -1147,1637 -1149,1704 -1148,1771 -1148,1809 -1149,1847 -1151,1885 -1156,1988 -1156,1990 -1255,2021 -1347,2049 -1438,2080 -1538,2095 L -1538,2095 Z"/>
         <path fill="rgb(254,254,253)" stroke="none" d="M -3222,3108 C -3199,3098 -3187,3110 -3174,3115 -3065,3156 -2953,3184 -2839,3207 -2793,3216 -2794,3217 -2792,3264 -2788,3340 -2784,3416 -2780,3492 -2779,3519 -2780,3546 -2780,3579 -2924,3555 -3054,3507 -3158,3404 -3191,3370 -3210,3328 -3215,3279 -3220,3221 -3224,3163 -3222,3108 L -3222,3108 Z"/>
         <path fill="rgb(254,254,253)" stroke="none" d="M -1537,3107 C -1537,2981 -1537,2863 -1537,2745 -1537,2726 -1534,2713 -1512,2708 -1401,2684 -1292,2654 -1184,2608 -1184,2679 -1183,2746 -1185,2812 -1186,2859 -1192,2905 -1194,2951 -1194,2978 -1204,2995 -1229,3005 -1325,3047 -1424,3082 -1537,3107 L -1537,3107 Z"/>
         <path fill="rgb(254,254,253)" stroke="none" d="M -3399,6202 C -2640,6458 -1882,6499 -1120,6204 -1115,6300 -1122,6392 -1130,6484 -1133,6515 -1158,6519 -1178,6528 -1290,6578 -1407,6615 -1526,6645 -1773,6708 -2026,6724 -2280,6724 -2640,6723 -2990,6663 -3329,6543 -3371,6528 -3391,6510 -3391,6463 -3393,6377 -3405,6291 -3399,6202 L -3399,6202 Z"/>
         <path fill="rgb(254,254,253)" stroke="none" d="M -1136,5456 C -1132,5541 -1128,5629 -1124,5717 -1123,5740 -1135,5748 -1155,5757 -1334,5837 -1520,5891 -1712,5922 -2227,6006 -2734,5968 -3234,5820 -3279,5806 -3322,5789 -3366,5773 -3382,5767 -3398,5761 -3397,5740 -3397,5731 -3397,5723 -3396,5714 -3386,5628 -3395,5541 -3376,5452 -3318,5478 -3265,5508 -3208,5528 -3047,5584 -2880,5609 -2712,5629 -2460,5658 -2207,5661 -1953,5643 -1778,5631 -1605,5608 -1434,5566 -1342,5543 -1253,5509 -1170,5463 -1161,5457 -1154,5447 -1136,5456 L -1136,5456 Z"/>
         <path fill="rgb(254,254,253)" stroke="none" d="M -3322,6976 C -3146,7042 -2969,7089 -2788,7120 -2501,7170 -2213,7182 -1923,7157 -1724,7140 -1529,7107 -1342,7038 -1290,7019 -1241,6997 -1184,6975 -1195,7068 -1219,7153 -1237,7239 -1249,7297 -1280,7327 -1335,7349 -1502,7414 -1676,7448 -1852,7470 -2069,7497 -2286,7501 -2503,7483 -2742,7464 -2977,7426 -3204,7347 -3238,7335 -3255,7318 -3265,7284 -3287,7202 -3308,7121 -3323,7038 -3326,7020 -3333,7001 -3322,6976 L -3322,6976 Z"/>
         <path fill="rgb(254,254,253)" stroke="none" d="M -2169,5084 C -1923,5091 -1679,5107 -1441,5172 -1361,5194 -1282,5216 -1211,5260 -1130,5310 -1129,5348 -1210,5396 -1223,5404 -1237,5409 -1249,5417 -1284,5439 -1313,5441 -1353,5417 -1445,5363 -1550,5344 -1654,5325 -1858,5287 -2066,5280 -2273,5281 -2484,5282 -2695,5293 -2903,5337 -3000,5357 -3096,5382 -3185,5428 -3201,5436 -3215,5441 -3233,5433 -3270,5417 -3307,5401 -3338,5375 -3376,5344 -3376,5318 -3340,5287 -3300,5251 -3252,5229 -3202,5212 -3051,5159 -2896,5127 -2738,5111 -2549,5092 -2359,5077 -2169,5084 L -2169,5084 Z"/>
         <path fill="rgb(253,252,251)" stroke="none" d="M -1110,7046 C -1100,6975 -1090,6903 -1080,6830 -1047,6591 -1036,6351 -1034,6110 -1033,6007 -1033,6007 -934,5976 -765,5924 -616,6008 -575,6179 -542,6313 -562,6444 -608,6571 -690,6803 -855,6954 -1078,7048 -1087,7051 -1097,7056 -1110,7046 L -1110,7046 Z"/>
         <path fill="rgb(254,254,253)" stroke="none" d="M -1039,5929 C -1039,5864 -1038,5809 -1039,5755 -1040,5727 -1026,5720 -1003,5713 -675,5618 -369,5813 -320,6151 -272,6478 -375,6760 -588,7005 -744,7185 -945,7292 -1182,7356 -1164,7287 -1148,7223 -1131,7159 -1127,7145 -1114,7143 -1101,7138 -1077,7130 -1054,7122 -1030,7112 -675,6974 -451,6613 -484,6233 -489,6180 -502,6129 -524,6080 -594,5924 -761,5846 -929,5892 -961,5901 -992,5913 -1039,5929 L -1039,5929 Z"/>
         <path fill="rgb(254,254,253)" stroke="none" d="M -3040,7824 C -2510,7928 -1994,7950 -1468,7818 -1506,7875 -1549,7906 -1598,7929 -1691,7974 -1791,7991 -1892,8003 -2088,8026 -2284,8032 -2481,8017 -2597,8009 -2712,7996 -2824,7962 -2904,7938 -2975,7900 -3040,7824 L -3040,7824 Z"/>
         <path fill="rgb(254,254,253)" stroke="none" d="M 8818,1638 C 9513,1820 10207,1828 10905,1642 10907,1645 10907,1654 10906,1662 10887,1815 10867,1968 10849,2121 10846,2152 10831,2165 10807,2176 10706,2224 10598,2246 10490,2264 10153,2320 9814,2330 9473,2293 9324,2277 9176,2255 9031,2216 9013,2211 8995,2204 8976,2200 8898,2184 8869,2136 8863,2057 8853,1927 8833,1797 8817,1667 8816,1657 8813,1646 8818,1638 L 8818,1638 Z"/>
         <path fill="rgb(254,254,253)" stroke="none" d="M 10697,3461 C 10684,3564 10674,3651 10663,3739 10652,3831 10638,3923 10630,4016 10626,4058 10609,4087 10577,4112 10503,4168 10416,4196 10328,4218 10096,4275 9860,4279 9623,4251 9499,4237 9378,4210 9261,4167 9217,4151 9175,4132 9138,4103 9115,4085 9100,4062 9097,4034 9074,3852 9052,3669 9029,3487 9029,3481 9031,3475 9033,3465 9300,3570 9579,3595 9860,3595 10142,3596 10422,3584 10697,3461 L 10697,3461 Z"/>
         <path fill="rgb(254,254,253)" stroke="none" d="M 8895,922 C 8964,956 9030,988 9101,1009 9273,1057 9448,1082 9626,1092 9930,1110 10234,1101 10533,1034 10635,1012 10732,979 10824,920 10847,990 10855,1057 10872,1122 10880,1154 10862,1169 10840,1183 10775,1227 10701,1254 10626,1274 10509,1307 10390,1323 10271,1336 10060,1359 9849,1366 9638,1350 9431,1335 9225,1318 9027,1251 8977,1233 8930,1211 8884,1184 8854,1167 8842,1147 8852,1111 8868,1051 8880,988 8895,922 L 8895,922 Z"/>
         <path fill="rgb(253,252,251)" stroke="none" d="M 9798,1020 C 9629,1019 9394,1000 9163,945 9099,930 9037,909 8979,876 8903,833 8902,793 8978,751 9076,698 9183,672 9291,652 9675,583 10059,589 10443,654 10541,670 10637,697 10726,741 10758,758 10799,773 10800,813 10801,853 10760,869 10728,886 10643,930 10551,952 10458,969 10402,980 10345,988 10289,995 10149,1013 10007,1020 9798,1020 L 9798,1020 Z"/>
         <path fill="rgb(254,254,253)" stroke="none" d="M 11053,1357 C 11073,1433 11068,1448 11014,1488 10962,1526 10903,1548 10842,1567 10608,1644 10365,1677 10120,1690 9814,1707 9508,1698 9205,1643 9068,1618 8932,1590 8802,1538 8764,1522 8728,1505 8697,1480 8652,1445 8647,1424 8670,1363 8719,1387 8764,1417 8815,1439 8982,1510 9158,1541 9336,1565 9611,1601 9887,1614 10164,1591 10391,1571 10617,1545 10834,1467 10910,1439 10982,1405 11053,1357 L 11053,1357 Z"/>
         <path fill="rgb(254,254,253)" stroke="none" d="M 9858,1519 C 9579,1523 9282,1491 8990,1416 8922,1398 8856,1378 8794,1346 8761,1329 8731,1311 8707,1283 8692,1266 8683,1247 8693,1225 8705,1198 8731,1186 8757,1176 8767,1172 8774,1185 8780,1193 8821,1245 8876,1275 8935,1300 9064,1355 9201,1382 9339,1402 9622,1442 9907,1448 10192,1425 10358,1411 10524,1389 10684,1340 10737,1324 10788,1304 10836,1278 10872,1259 10904,1236 10930,1204 10956,1173 10969,1172 11002,1196 11035,1221 11041,1248 11018,1277 10992,1311 10954,1332 10916,1350 10830,1392 10738,1416 10646,1439 10395,1501 10139,1522 9858,1519 L 9858,1519 Z"/>
         <path fill="rgb(254,254,253)" stroke="none" d="M 1951,4563 C 1822,4563 1693,4563 1564,4562 1519,4562 1518,4561 1523,4516 1554,4258 1586,4000 1617,3742 1641,3545 1664,3347 1687,3150 1689,3133 1691,3117 1693,3100 1695,3084 1704,3079 1719,3079 1742,3080 1766,3080 1789,3082 1911,3090 2033,3087 2156,3080 2201,3077 2203,3078 2208,3126 2233,3321 2257,3516 2281,3711 2305,3906 2329,4101 2353,4296 2362,4371 2370,4447 2380,4522 2384,4553 2375,4563 2343,4563 2212,4562 2082,4562 1951,4563 1951,4562 1951,4562 1951,4563 L 1951,4563 Z"/>
         <path fill="rgb(254,254,253)" stroke="none" d="M 1954,1234 C 2072,1234 2190,1234 2308,1234 2387,1235 2377,1232 2369,1304 2352,1468 2332,1632 2314,1795 2290,2005 2267,2215 2243,2425 2235,2492 2224,2559 2220,2626 2217,2661 2201,2667 2171,2669 2023,2673 1876,2672 1728,2669 1696,2669 1685,2658 1681,2625 1667,2489 1649,2353 1634,2216 1610,2006 1587,1796 1564,1586 1553,1490 1542,1393 1533,1296 1527,1237 1528,1236 1586,1236 1708,1236 1831,1236 1954,1236 1954,1236 1954,1235 1954,1234 L 1954,1234 Z"/>
         <path fill="rgb(254,254,253)" stroke="none" d="M 2463,4548 C 2444,4393 2426,4245 2408,4096 2381,3867 2354,3638 2326,3410 2315,3311 2306,3212 2290,3114 2285,3078 2295,3069 2327,3067 2413,3060 2498,3043 2582,3023 2645,3008 2680,3026 2697,3087 2716,3158 2733,3231 2749,3303 2816,3612 2883,3922 2949,4231 2952,4246 2954,4260 2956,4275 2960,4343 2943,4373 2879,4397 2787,4433 2694,4467 2601,4501 2557,4516 2516,4538 2463,4548 L 2463,4548 Z"/>
         <path fill="rgb(254,254,253)" stroke="none" d="M 1439,4545 C 1410,4549 1388,4532 1365,4524 1254,4484 1143,4443 1033,4400 955,4370 934,4333 952,4253 1031,3886 1111,3519 1191,3151 1196,3128 1202,3106 1209,3084 1228,3027 1269,3005 1326,3020 1406,3040 1487,3057 1568,3067 1613,3072 1615,3073 1609,3118 1591,3277 1571,3437 1552,3596 1533,3760 1514,3923 1495,4087 1476,4240 1458,4392 1439,4545 L 1439,4545 Z"/>
         <path fill="rgb(254,254,253)" stroke="none" d="M 2298,2656 C 2312,2539 2324,2433 2336,2326 2360,2110 2384,1894 2408,1678 2423,1541 2439,1405 2453,1268 2456,1241 2465,1228 2494,1225 2645,1207 2796,1188 2947,1169 2955,1168 2963,1168 2975,1168 2983,1201 2969,1231 2963,1260 2884,1668 2802,2076 2724,2484 2710,2555 2674,2598 2601,2609 2504,2624 2406,2639 2298,2656 L 2298,2656 Z"/>
         <path fill="rgb(254,254,253)" stroke="none" d="M 1601,2656 C 1493,2638 1398,2623 1302,2607 1234,2596 1196,2559 1182,2488 1137,2254 1091,2020 1073,1781 1060,1611 1035,1441 1016,1271 1013,1249 1013,1226 1011,1201 1063,1192 1110,1206 1158,1210 1240,1216 1322,1225 1404,1230 1434,1232 1448,1241 1451,1274 1464,1411 1480,1547 1495,1684 1522,1931 1550,2179 1577,2427 1586,2500 1592,2573 1601,2656 L 1601,2656 Z"/>
         <path fill="rgb(254,254,253)" stroke="none" d="M 1303,2692 C 1737,2772 2165,2775 2599,2693 2601,2763 2601,2830 2594,2896 2591,2928 2573,2943 2542,2951 2436,2977 2327,2994 2217,2999 2004,3009 1791,3012 1579,2989 1507,2981 1437,2965 1367,2950 1327,2942 1310,2917 1306,2880 1300,2820 1298,2759 1303,2692 L 1303,2692 Z"/>
         <path fill="rgb(254,254,253)" stroke="none" d="M 2328,1157 C 2075,1157 1824,1157 1573,1157 1563,1137 1581,1127 1590,1114 1680,992 1771,870 1860,747 1876,726 1892,714 1918,718 1930,720 1943,720 1956,719 1997,715 2027,730 2052,765 2138,885 2228,1003 2316,1121 2322,1129 2330,1137 2328,1157 L 2328,1157 Z"/>
         <path fill="rgb(254,254,253)" stroke="none" d="M 444,1260 C 481,1205 518,1175 582,1179 660,1184 738,1178 816,1177 835,1177 854,1177 873,1179 919,1185 927,1191 933,1237 956,1446 977,1655 990,1868 975,1849 959,1830 944,1811 860,1697 780,1581 706,1461 701,1454 697,1447 692,1439 634,1350 570,1267 444,1260 L 444,1260 Z"/>
         <path fill="rgb(254,254,253)" stroke="none" d="M 962,1101 C 1227,974 1490,855 1759,738 1760,764 1746,774 1736,787 1654,899 1570,1010 1487,1122 1474,1140 1464,1156 1437,1153 1284,1138 1131,1124 977,1110 974,1110 971,1106 962,1101 L 962,1101 Z"/>
         <path fill="rgb(254,254,253)" stroke="none" d="M 2144,740 C 2401,846 2651,965 2902,1090 2867,1096 2831,1103 2796,1107 2693,1120 2591,1132 2489,1146 2455,1151 2430,1145 2408,1114 2325,997 2238,883 2152,768 2147,762 2141,756 2144,740 L 2144,740 Z"/>
         <path fill="rgb(254,254,253)" stroke="none" d="M 5522,1255 C 5521,1282 5506,1298 5497,1317 5444,1420 5386,1521 5343,1629 5330,1661 5322,1694 5313,1726 5308,1747 5307,1771 5332,1780 5360,1790 5376,1774 5385,1749 5393,1728 5401,1706 5409,1684 5458,1546 5538,1423 5598,1290 5608,1269 5622,1264 5643,1266 5731,1277 5820,1285 5909,1287 5931,1287 5939,1297 5936,1318 5932,1356 5928,1394 5925,1432 5923,1446 5922,1461 5922,1476 5922,1499 5930,1519 5958,1519 5984,1519 5995,1502 5998,1478 6003,1432 6007,1386 6013,1340 6019,1293 6021,1291 6068,1291 6126,1290 6183,1290 6240,1289 6261,1288 6273,1293 6281,1317 6318,1432 6347,1548 6344,1671 6344,1679 6344,1688 6343,1696 6340,1718 6345,1751 6320,1756 6289,1762 6293,1725 6285,1706 6278,1690 6273,1674 6254,1668 6230,1662 6210,1677 6210,1707 6210,1759 6233,1802 6277,1830 6317,1855 6366,1842 6393,1802 6414,1771 6420,1735 6422,1699 6429,1586 6410,1476 6381,1367 6359,1284 6359,1285 6442,1274 6484,1268 6525,1261 6567,1254 6623,1246 6664,1284 6657,1342 6650,1398 6639,1454 6632,1511 6594,1800 6560,2090 6536,2380 6517,2610 6505,2840 6512,3071 6517,3242 6523,3414 6519,3585 6518,3624 6513,3661 6506,3698 6488,3789 6435,3831 6342,3832 6234,3833 6127,3815 6021,3799 5787,3764 5553,3727 5320,3688 5187,3665 5056,3633 4929,3586 4843,3554 4763,3512 4704,3438 4642,3362 4620,3274 4624,3178 4628,3078 4649,2981 4668,2883 4712,2653 4754,2423 4814,2195 4865,2001 4953,1824 5052,1652 5129,1518 5211,1387 5288,1254 5305,1225 5323,1223 5350,1228 5406,1237 5462,1246 5522,1255 L 5522,1255 Z"/>
         <path fill="rgb(254,254,253)" stroke="none" d="M 5539,1170 C 5476,1160 5422,1152 5368,1145 5334,1140 5313,1125 5298,1092 5240,960 5175,832 5132,695 5122,662 5111,630 5111,596 5110,543 5130,522 5182,522 5235,521 5286,535 5338,545 5409,558 5479,573 5551,553 5582,544 5611,533 5640,520 5688,498 5736,477 5785,456 5864,421 5944,421 6025,451 6043,458 6061,464 6078,473 6219,551 6368,552 6521,521 6593,506 6667,496 6741,494 6791,492 6842,495 6888,527 6879,557 6853,563 6832,574 6763,608 6688,609 6615,600 6506,587 6468,596 6432,730 6394,873 6350,1014 6295,1151 6280,1188 6261,1204 6221,1203 6166,1201 6111,1205 6056,1207 6032,1208 6022,1198 6023,1173 6024,1127 6022,1081 6014,1034 6009,1008 6000,987 5971,990 5942,993 5935,1017 5936,1042 5939,1080 5943,1118 5944,1156 5946,1197 5944,1200 5904,1200 5822,1201 5740,1188 5658,1183 5632,1182 5623,1167 5617,1143 5594,1049 5554,960 5523,868 5508,822 5491,809 5465,817 5439,825 5432,848 5446,893 5461,939 5480,984 5497,1029 5513,1073 5532,1115 5539,1170 L 5539,1170 Z"/>
         <path fill="rgb(254,254,253)" stroke="none" d="M 6583,3715 C 6598,3611 6596,3512 6596,3414 6597,3190 6587,2966 6595,2741 6605,2490 6623,2239 6654,1989 6674,1834 6691,1678 6709,1523 6711,1507 6707,1489 6728,1473 6757,1615 6790,1753 6811,1893 6850,2150 6870,2409 6889,2669 6902,2850 6919,3031 6936,3212 6941,3263 6931,3306 6899,3347 6815,3454 6738,3565 6646,3664 6629,3682 6615,3704 6583,3715 L 6583,3715 Z"/>
         <path fill="rgb(254,254,253)" stroke="none" d="M 6812,1396 C 6861,1484 6911,1571 6959,1660 7121,1961 7214,2283 7256,2622 7280,2817 7311,3011 7339,3205 7346,3258 7347,3310 7344,3363 7342,3387 7331,3397 7306,3391 7212,3365 7125,3321 7037,3281 7015,3272 7014,3253 7013,3234 7005,3124 6997,3015 6989,2905 6970,2642 6952,2378 6922,2116 6899,1908 6858,1703 6818,1498 6811,1465 6805,1432 6799,1398 6803,1397 6808,1396 6812,1396 L 6812,1396 Z"/>
         <path fill="rgb(254,254,253)" stroke="none" d="M 6365,1199 C 6393,1119 6419,1048 6442,976 6467,894 6489,810 6515,727 6530,678 6539,671 6588,680 6691,700 6789,682 6885,648 6901,660 6889,672 6886,682 6851,809 6788,924 6730,1041 6725,1050 6718,1060 6709,1064 6668,1081 6638,1108 6620,1149 6615,1161 6604,1163 6594,1164 6520,1176 6446,1187 6365,1199 L 6365,1199 Z"/>
         <path fill="rgb(254,254,253)" stroke="none" d="M 6660,3781 C 6745,3672 6829,3564 6914,3457 6941,3423 6959,3366 6998,3360 7033,3354 7075,3388 7114,3403 7171,3426 7228,3447 7285,3469 7286,3470 7287,3473 7290,3477 7270,3505 7242,3527 7211,3544 7038,3638 6859,3717 6675,3784 6671,3785 6666,3783 6660,3781 L 6660,3781 Z"/>
         <path fill="rgb(254,254,253)" stroke="none" d="M 1742,6250 C 1945,6250 2148,6253 2351,6248 2423,6246 2467,6269 2509,6327 2681,6563 2825,6812 2908,7094 2952,7243 2974,7396 2942,7551 2913,7691 2837,7797 2710,7867 2558,7949 2395,7986 2225,8003 1953,8030 1681,8026 1408,8014 1239,8006 1071,7986 910,7929 880,7919 851,7908 822,7895 624,7809 531,7652 520,7442 510,7261 560,7091 626,6925 718,6698 847,6493 994,6298 1021,6263 1051,6248 1096,6248 1311,6250 1527,6249 1743,6249 1742,6249 1742,6250 1742,6250 L 1742,6250 Z"/>
         <path fill="rgb(254,254,253)" stroke="none" d="M 845,5514 C 948,5524 1044,5535 1141,5545 1338,5565 1535,5585 1733,5603 1966,5625 2200,5644 2433,5665 2489,5670 2491,5674 2472,5728 2459,5766 2453,5813 2426,5838 2399,5864 2349,5847 2310,5848 1911,5854 1512,5849 1112,5848 1087,5848 1064,5848 1046,5822 982,5728 916,5635 850,5542 847,5538 848,5531 845,5514 L 845,5514 Z"/>
         <path fill="rgb(254,254,253)" stroke="none" d="M 4478,6515 C 4487,6516 4492,6515 4495,6517 4681,6613 4884,6641 5087,6670 5558,6737 6031,6736 6504,6693 6710,6675 6914,6644 7114,6583 7170,6566 7221,6536 7282,6517 7280,6621 7262,6719 7241,6815 7200,6994 7133,7162 7025,7312 6853,7553 6618,7702 6334,7773 5964,7864 5596,7851 5240,7705 4922,7573 4706,7341 4585,7020 4528,6867 4496,6707 4478,6545 4477,6537 4478,6528 4478,6515 L 4478,6515 Z"/>
         <path fill="rgb(253,252,251)" stroke="none" d="M 5766,6137 C 6237,6135 6574,6159 6906,6226 7002,6245 7095,6270 7185,6310 7212,6322 7238,6335 7261,6355 7290,6381 7289,6404 7259,6428 7244,6440 7226,6447 7211,6458 7173,6485 7138,6487 7094,6464 6990,6410 6876,6387 6761,6367 6374,6298 5985,6288 5593,6311 5431,6321 5269,6331 5107,6354 4990,6371 4874,6393 4760,6425 4724,6435 4687,6447 4655,6468 4627,6486 4600,6485 4573,6467 4548,6450 4522,6436 4498,6419 4471,6398 4471,6389 4495,6363 4514,6342 4538,6329 4563,6318 4661,6272 4766,6248 4871,6226 5210,6156 5554,6140 5766,6137 L 5766,6137 Z"/>
         <path fill="rgb(234,234,232)" stroke="none" d="M 6539,7787 C 6516,7881 6463,7929 6392,7960 6311,7994 6225,8008 6139,8015 5943,8031 5747,8033 5552,8004 5478,7993 5406,7978 5341,7941 5285,7909 5248,7863 5234,7789 5448,7870 5663,7909 5886,7907 6107,7905 6323,7877 6539,7787 L 6539,7787 Z"/>
         <path fill="rgb(254,254,253)" stroke="none" d="M 8398,6629 C 8390,6473 8448,6326 8538,6188 8583,6118 8608,6040 8625,5959 8678,5706 8824,5535 9074,5459 9203,5420 9331,5376 9449,5308 9567,5240 9696,5245 9825,5266 9883,5276 9941,5290 9997,5308 10082,5335 10169,5356 10258,5359 10401,5365 10523,5421 10633,5508 10722,5578 10800,5657 10865,5750 10935,5852 10975,5964 10984,6086 10990,6174 11009,6257 11044,6337 11081,6421 11113,6505 11127,6596 11158,6812 11104,7007 10974,7180 10915,7258 10858,7334 10817,7424 10727,7623 10561,7725 10356,7774 10319,7783 10282,7792 10244,7797 10151,7811 10064,7843 9979,7881 9750,7982 9530,7955 9319,7832 9251,7793 9183,7757 9107,7736 9004,7707 8911,7657 8828,7590 8748,7527 8689,7447 8662,7348 8630,7231 8579,7123 8509,7024 8427,6909 8395,6780 8398,6629 L 8398,6629 Z"/>
         <path fill="rgb(21,21,21)" stroke="none" d="M 9211,811 C 9393,924 10335,925 10511,814 10487,790 10455,789 10426,781 10404,775 10381,772 10358,766 10337,760 10324,745 10329,723 10333,703 10348,691 10371,691 10379,691 10388,691 10396,693 10441,702 10487,712 10529,731 10566,746 10597,769 10598,814 10598,855 10568,877 10534,893 10481,920 10423,932 10364,941 10089,983 9813,990 9536,962 9446,953 9356,943 9267,920 9235,912 9202,902 9173,884 9108,844 9108,777 9176,740 9234,708 9298,695 9363,685 9438,673 9514,665 9589,656 9606,654 9623,654 9640,656 9662,658 9674,672 9675,694 9676,717 9663,729 9641,732 9610,736 9578,738 9546,740 9448,749 9349,761 9254,790 9240,794 9226,798 9211,811 L 9211,811 Z"/>
         <path fill="rgb(21,21,21)" stroke="none" d="M 5999,2489 C 5984,2713 5894,2894 5692,3008 5644,3035 5592,3054 5535,3051 5518,3050 5502,3049 5486,3042 5452,3027 5447,3010 5475,2987 5594,2888 5637,2755 5643,2606 5648,2490 5672,2380 5753,2290 5776,2265 5798,2240 5828,2223 5870,2201 5890,2204 5923,2239 5939,2256 5950,2276 5959,2297 5986,2358 5999,2421 5999,2489 L 5999,2489 Z"/>
         <path fill="rgb(21,21,21)" stroke="none" d="M 5235,2723 C 5246,2531 5315,2366 5461,2237 5516,2188 5580,2157 5652,2144 5673,2140 5694,2139 5715,2140 5737,2140 5760,2144 5769,2166 5778,2189 5756,2200 5743,2212 5635,2315 5580,2442 5578,2591 5576,2706 5551,2813 5474,2903 5458,2922 5441,2942 5419,2955 5372,2984 5330,2977 5297,2932 5250,2871 5234,2799 5235,2723 L 5235,2723 Z"/>
         <path fill="rgb(21,21,21)" stroke="none" d="M 4831,3023 C 4823,3062 4819,3104 4818,3146 4817,3262 4871,3343 4974,3392 4999,3404 5025,3412 5051,3420 5077,3428 5093,3441 5086,3470 5079,3501 5055,3500 5031,3496 4880,3469 4764,3347 4747,3196 4740,3137 4741,3078 4752,3019 4754,3009 4754,2998 4758,2988 4765,2972 4777,2959 4797,2962 4820,2965 4829,2980 4831,3001 4831,3008 4831,3014 4831,3023 L 4831,3023 Z"/>
         <path fill="rgb(21,21,21)" stroke="none" d="M 1679,7902 C 1487,7899 1295,7890 1105,7852 1014,7833 927,7801 848,7750 724,7670 666,7555 658,7410 649,7246 695,7093 755,6943 783,6874 815,6808 854,6745 880,6704 914,6686 963,6682 1205,6661 1445,6676 1685,6701 1844,6717 2001,6716 2160,6703 2276,6693 2391,6683 2508,6682 2561,6681 2594,6702 2620,6747 2712,6906 2778,7074 2809,7255 2821,7326 2821,7399 2811,7470 2792,7597 2723,7692 2615,7760 2522,7818 2418,7846 2311,7865 2102,7901 1891,7905 1679,7902 L 1679,7902 Z"/>
         <path fill="rgb(21,21,21)" stroke="none" d="M 4710,6809 C 4735,6808 4745,6828 4751,6848 4765,6888 4775,6929 4791,6968 4865,7155 4973,7316 5149,7421 5155,7424 5161,7427 5165,7432 5178,7444 5189,7456 5179,7476 5170,7496 5152,7503 5132,7496 5102,7487 5076,7468 5050,7449 4892,7333 4786,7179 4718,6996 4701,6951 4687,6904 4675,6857 4668,6827 4683,6809 4710,6809 L 4710,6809 Z"/>
         <path fill="rgb(21,21,21)" stroke="none" d="M 9588,5693 C 9600,5711 9630,5697 9636,5717 9644,5743 9644,5773 9634,5798 9599,5886 9563,5974 9525,6061 9504,6110 9462,6135 9409,6135 9308,6135 9208,6143 9108,6162 9033,6175 8996,6139 9000,6062 9004,5992 9011,5923 9019,5854 9022,5826 9031,5800 9049,5778 9098,5717 9160,5670 9227,5629 9261,5608 9300,5614 9338,5622 9402,5635 9464,5656 9524,5682 9546,5685 9569,5679 9588,5693 L 9588,5693 Z"/>
         <path fill="rgb(21,21,21)" stroke="none" d="M 10794,6374 C 10792,6381 10790,6389 10788,6397 10768,6450 10749,6504 10729,6557 10719,6583 10707,6598 10673,6589 10608,6571 10543,6580 10480,6602 10456,6611 10432,6620 10408,6626 10334,6644 10270,6601 10262,6526 10258,6482 10262,6438 10262,6394 10264,6326 10268,6259 10241,6194 10226,6156 10242,6135 10282,6124 10294,6121 10307,6119 10319,6118 10354,6113 10382,6103 10400,6067 10418,6035 10437,6034 10469,6049 10473,6051 10477,6053 10480,6056 10561,6137 10660,6195 10744,6273 10773,6299 10790,6333 10794,6374 L 10794,6374 Z"/>
         <path fill="rgb(21,21,21)" stroke="none" d="M 9418,7459 C 9319,7458 9237,7442 9178,7371 9165,7356 9147,7349 9129,7341 9106,7331 9084,7318 9065,7301 8992,7236 8987,7184 9045,7104 9090,7040 9139,6980 9174,6909 9197,6860 9223,6858 9260,6898 9319,6960 9386,7009 9466,7041 9522,7064 9562,7109 9610,7144 9627,7157 9624,7172 9621,7189 9612,7245 9582,7291 9558,7340 9548,7359 9536,7377 9526,7395 9500,7443 9469,7481 9418,7459 L 9418,7459 Z"/>
         <path fill="rgb(21,21,21)" stroke="none" d="M 10156,7227 C 10156,7204 10155,7181 10156,7158 10159,7098 10189,7057 10245,7041 10309,7023 10375,7025 10440,7028 10481,7030 10502,7062 10514,7098 10553,7205 10513,7307 10410,7358 10367,7380 10322,7399 10275,7413 10213,7430 10185,7414 10165,7353 10152,7312 10158,7270 10156,7227 L 10156,7227 Z"/>
         <path fill="rgb(21,21,21)" stroke="none" d="M 9801,6710 C 9743,6703 9677,6689 9616,6659 9565,6634 9553,6602 9575,6550 9594,6503 9620,6459 9665,6430 9738,6383 9817,6403 9858,6480 9878,6517 9895,6556 9904,6597 9920,6671 9886,6712 9801,6710 L 9801,6710 Z"/>
         <path fill="rgb(21,21,21)" stroke="none" d="M 10299,5515 C 10363,5518 10417,5553 10444,5619 10471,5682 10457,5743 10410,5795 10381,5826 10356,5830 10320,5810 10253,5773 10193,5726 10136,5675 10099,5641 10101,5607 10140,5573 10183,5536 10233,5515 10299,5515 L 10299,5515 Z"/>
         <path fill="rgb(21,21,21)" stroke="none" d="M 8877,6538 C 8876,6582 8882,6627 8869,6670 8856,6712 8846,6721 8802,6721 8743,6722 8688,6710 8651,6659 8601,6590 8628,6461 8700,6416 8734,6395 8771,6387 8809,6385 8850,6382 8871,6401 8877,6443 8878,6447 8878,6451 8878,6455 8877,6483 8877,6510 8877,6538 L 8877,6538 Z"/>
         <path fill="rgb(21,21,21)" stroke="none" d="M 10984,6795 C 10986,6853 10967,6902 10940,6947 10933,6960 10924,6972 10910,6978 10895,6985 10882,6987 10869,6977 10855,6966 10853,6952 10857,6937 10859,6929 10864,6921 10868,6915 10898,6869 10910,6819 10905,6765 10904,6757 10905,6748 10906,6740 10908,6724 10917,6713 10934,6710 10953,6706 10966,6714 10975,6730 10987,6752 10983,6776 10984,6795 L 10984,6795 Z"/>
         <path fill="rgb(21,21,21)" stroke="none" d="M 9761,7663 C 9794,7669 9832,7656 9863,7622 9879,7603 9900,7591 9923,7612 9941,7627 9937,7652 9914,7679 9870,7728 9772,7754 9709,7732 9687,7724 9673,7712 9676,7686 9681,7655 9702,7657 9724,7659 9732,7660 9740,7661 9761,7663 L 9761,7663 Z"/>
         <path fill="rgb(21,21,21)" stroke="none" d="M 8765,7265 C 8764,7234 8777,7215 8801,7214 8828,7213 8839,7230 8841,7254 8843,7291 8862,7317 8892,7336 8899,7341 8906,7346 8911,7353 8924,7370 8925,7389 8911,7405 8899,7419 8882,7419 8864,7412 8822,7393 8766,7311 8765,7265 L 8765,7265 Z"/>
         <path fill="rgb(21,21,21)" stroke="none" d="M 9841,5870 C 9895,5871 9939,5903 9946,5946 9948,5963 9949,5981 9932,5991 9914,6002 9896,5999 9883,5981 9868,5962 9851,5949 9827,5943 9805,5936 9791,5920 9799,5895 9805,5873 9823,5868 9841,5870 L 9841,5870 Z"/>
        </g>
       </g>
      </g>
     </g>
    </g>
   </g>
  </g>
 </g>
</svg>